<mxfile host="app.diagrams.net" agent="Mozilla/5.0 (Windows NT 10.0; Win64; x64) AppleWebKit/537.36 (KHTML, like Gecko) Chrome/135.0.0.0 Safari/537.36 OPR/120.0.0.0" version="28.2.0">
  <diagram name="Prescription Service - DC" id="-rO3_hpFllKhwETeMBrI">
    <mxGraphModel dx="1139" dy="570" grid="1" gridSize="10" guides="1" tooltips="1" connect="1" arrows="1" fold="1" page="1" pageScale="1" pageWidth="3300" pageHeight="2339" math="0" shadow="0">
      <root>
        <mxCell id="0" />
        <mxCell id="1" parent="0" />
        <mxCell id="9863JnEJpdngomxdaVxT-1" value="" style="html=1;whiteSpace=wrap;fontSize=14;" parent="1" vertex="1">
          <mxGeometry x="550" y="260" width="1140" height="1130" as="geometry" />
        </mxCell>
        <mxCell id="9863JnEJpdngomxdaVxT-2" value="Entites" style="shape=folder;fontStyle=1;tabWidth=110;tabHeight=30;tabPosition=left;html=1;boundedLbl=1;labelInHeader=1;container=1;collapsible=0;recursiveResize=0;whiteSpace=wrap;fontSize=14;" parent="1" vertex="1">
          <mxGeometry x="995.5" y="1060" width="310.5" height="320" as="geometry" />
        </mxCell>
        <mxCell id="9863JnEJpdngomxdaVxT-3" value="&lt;div style=&quot;text-align: left;&quot;&gt;&lt;font face=&quot;monospace&quot;&gt;Pharmacy&lt;/font&gt;&lt;/div&gt;" style="swimlane;fontStyle=1;align=center;verticalAlign=top;childLayout=stackLayout;horizontal=1;startSize=26;horizontalStack=0;resizeParent=1;resizeParentMax=0;resizeLast=0;collapsible=1;marginBottom=0;whiteSpace=wrap;html=1;fillColor=#dae8fc;strokeColor=#6c8ebf;rounded=1;fontSize=14;" parent="9863JnEJpdngomxdaVxT-2" vertex="1">
          <mxGeometry x="24.5" y="37" width="270" height="278" as="geometry">
            <mxRectangle x="200" y="60" width="70" height="30" as="alternateBounds" />
          </mxGeometry>
        </mxCell>
        <mxCell id="9863JnEJpdngomxdaVxT-4" value="&lt;div&gt;- id : String&lt;/div&gt;&lt;div&gt;- name : String&lt;/div&gt;&lt;div&gt;- address : String&lt;/div&gt;&lt;div&gt;- latitude : double&lt;/div&gt;&lt;div&gt;- longitude : double&lt;/div&gt;&lt;div&gt;- isOpen24Hours : boolean&lt;/div&gt;&lt;div&gt;- openingHours : String&lt;/div&gt;&lt;div&gt;- phone : String&lt;/div&gt;&lt;div&gt;- website : String&lt;/div&gt;&lt;div&gt;&lt;br&gt;&lt;/div&gt;&lt;div&gt;&lt;div&gt;+ prePersist() : void&lt;/div&gt;&lt;div&gt;+ getUuid() : UUID&lt;/div&gt;&lt;div&gt;+ setIsOpen24Hours(open24Hours : boolean) : void&lt;/div&gt;&lt;/div&gt;" style="text;strokeColor=none;fillColor=none;align=left;verticalAlign=top;spacingLeft=4;spacingRight=4;overflow=hidden;rotatable=0;points=[[0,0.5],[1,0.5]];portConstraint=eastwest;whiteSpace=wrap;html=1;rounded=1;fontSize=14;" parent="9863JnEJpdngomxdaVxT-3" vertex="1">
          <mxGeometry y="26" width="270" height="244" as="geometry" />
        </mxCell>
        <mxCell id="wPEENe1g2MdUkx1XEMjC-1" value="" style="line;strokeWidth=1;fillColor=none;align=left;verticalAlign=middle;spacingTop=-1;spacingLeft=3;spacingRight=3;rotatable=0;labelPosition=right;points=[];portConstraint=eastwest;strokeColor=inherit;rounded=1;fontSize=14;" vertex="1" parent="9863JnEJpdngomxdaVxT-3">
          <mxGeometry y="270" width="270" height="8" as="geometry" />
        </mxCell>
        <mxCell id="wPEENe1g2MdUkx1XEMjC-2" value="" style="endArrow=none;html=1;rounded=0;entryX=1.005;entryY=0.655;entryDx=0;entryDy=0;entryPerimeter=0;" edge="1" parent="9863JnEJpdngomxdaVxT-3">
          <mxGeometry width="50" height="50" relative="1" as="geometry">
            <mxPoint x="4.25" y="195" as="sourcePoint" />
            <mxPoint x="271.3499999999999" y="193.82000000000016" as="targetPoint" />
          </mxGeometry>
        </mxCell>
        <mxCell id="9863JnEJpdngomxdaVxT-26" value="DTOs" style="shape=folder;fontStyle=1;tabWidth=110;tabHeight=30;tabPosition=left;html=1;boundedLbl=1;labelInHeader=1;container=1;collapsible=0;recursiveResize=0;whiteSpace=wrap;fontSize=14;" parent="1" vertex="1">
          <mxGeometry x="1329.75" y="560" width="310" height="312" as="geometry" />
        </mxCell>
        <mxCell id="9863JnEJpdngomxdaVxT-27" value="&lt;div style=&quot;text-align: left;&quot;&gt;&lt;span style=&quot;font-weight: 400;&quot;&gt;PharmacyRequestDTO&lt;/span&gt;&lt;/div&gt;" style="swimlane;fontStyle=1;align=center;verticalAlign=top;childLayout=stackLayout;horizontal=1;startSize=26;horizontalStack=0;resizeParent=1;resizeParentMax=0;resizeLast=0;collapsible=1;marginBottom=0;whiteSpace=wrap;html=1;fillColor=#dae8fc;strokeColor=#6c8ebf;rounded=1;fontSize=14;" parent="9863JnEJpdngomxdaVxT-26" vertex="1">
          <mxGeometry x="20" y="42" width="240" height="98" as="geometry">
            <mxRectangle x="200" y="60" width="70" height="30" as="alternateBounds" />
          </mxGeometry>
        </mxCell>
        <mxCell id="9863JnEJpdngomxdaVxT-28" value="&lt;div&gt;&amp;nbsp; &amp;nbsp; + name: String&lt;/div&gt;&lt;div&gt;&amp;nbsp; &amp;nbsp; + address: String&lt;/div&gt;&lt;div&gt;&amp;nbsp; &amp;nbsp; + openingHours: String&lt;/div&gt;" style="text;strokeColor=none;fillColor=none;align=left;verticalAlign=top;spacingLeft=4;spacingRight=4;overflow=hidden;rotatable=0;points=[[0,0.5],[1,0.5]];portConstraint=eastwest;whiteSpace=wrap;html=1;rounded=1;fontSize=14;" parent="9863JnEJpdngomxdaVxT-27" vertex="1">
          <mxGeometry y="26" width="240" height="64" as="geometry" />
        </mxCell>
        <mxCell id="9863JnEJpdngomxdaVxT-29" value="" style="line;strokeWidth=1;fillColor=none;align=left;verticalAlign=middle;spacingTop=-1;spacingLeft=3;spacingRight=3;rotatable=0;labelPosition=right;points=[];portConstraint=eastwest;strokeColor=inherit;rounded=1;fontSize=14;" parent="9863JnEJpdngomxdaVxT-27" vertex="1">
          <mxGeometry y="90" width="240" height="8" as="geometry" />
        </mxCell>
        <mxCell id="9863JnEJpdngomxdaVxT-30" value="&lt;div style=&quot;text-align: left;&quot;&gt;&lt;span style=&quot;font-weight: 400;&quot;&gt;&amp;nbsp;PharmacyResponseDTO&lt;/span&gt;&lt;/div&gt;" style="swimlane;fontStyle=1;align=center;verticalAlign=top;childLayout=stackLayout;horizontal=1;startSize=26;horizontalStack=0;resizeParent=1;resizeParentMax=0;resizeLast=0;collapsible=1;marginBottom=0;whiteSpace=wrap;html=1;fillColor=#dae8fc;strokeColor=#6c8ebf;rounded=1;fontSize=14;" parent="9863JnEJpdngomxdaVxT-26" vertex="1">
          <mxGeometry x="30" y="172" width="220" height="128" as="geometry">
            <mxRectangle x="200" y="60" width="70" height="30" as="alternateBounds" />
          </mxGeometry>
        </mxCell>
        <mxCell id="9863JnEJpdngomxdaVxT-31" value="&lt;div&gt;&amp;nbsp; &amp;nbsp; + id: UUID&lt;/div&gt;&lt;div&gt;&amp;nbsp; &amp;nbsp; + name: String&lt;/div&gt;&lt;div&gt;&amp;nbsp; &amp;nbsp; + address: String&lt;/div&gt;&lt;div&gt;&amp;nbsp; &amp;nbsp; + openingHours: String&lt;/div&gt;&lt;div&gt;&amp;nbsp; &amp;nbsp; + open24Hours: boolean&lt;/div&gt;" style="text;strokeColor=none;fillColor=none;align=left;verticalAlign=top;spacingLeft=4;spacingRight=4;overflow=hidden;rotatable=0;points=[[0,0.5],[1,0.5]];portConstraint=eastwest;whiteSpace=wrap;html=1;rounded=1;fontSize=14;" parent="9863JnEJpdngomxdaVxT-30" vertex="1">
          <mxGeometry y="26" width="220" height="94" as="geometry" />
        </mxCell>
        <mxCell id="9863JnEJpdngomxdaVxT-32" value="" style="line;strokeWidth=1;fillColor=none;align=left;verticalAlign=middle;spacingTop=-1;spacingLeft=3;spacingRight=3;rotatable=0;labelPosition=right;points=[];portConstraint=eastwest;strokeColor=inherit;rounded=1;fontSize=14;" parent="9863JnEJpdngomxdaVxT-30" vertex="1">
          <mxGeometry y="120" width="220" height="8" as="geometry" />
        </mxCell>
        <mxCell id="9863JnEJpdngomxdaVxT-41" value="Services" style="shape=folder;fontStyle=1;tabWidth=110;tabHeight=30;tabPosition=left;html=1;boundedLbl=1;labelInHeader=1;container=1;collapsible=0;recursiveResize=0;whiteSpace=wrap;fontSize=14;" parent="1" vertex="1">
          <mxGeometry x="641" y="610" width="549" height="371" as="geometry" />
        </mxCell>
        <mxCell id="9863JnEJpdngomxdaVxT-42" value="&lt;div style=&quot;text-align: left;&quot;&gt;PharmacyServiceImpl&lt;/div&gt;" style="swimlane;fontStyle=1;align=center;verticalAlign=top;childLayout=stackLayout;horizontal=1;startSize=26;horizontalStack=0;resizeParent=1;resizeParentMax=0;resizeLast=0;collapsible=1;marginBottom=0;whiteSpace=wrap;html=1;rounded=1;fillColor=#dae8fc;strokeColor=#6c8ebf;fontSize=14;" parent="9863JnEJpdngomxdaVxT-41" vertex="1">
          <mxGeometry x="59" y="171" width="411" height="160" as="geometry" />
        </mxCell>
        <mxCell id="9863JnEJpdngomxdaVxT-43" value="&lt;div&gt;&amp;nbsp; + createPharmacy(dto: PharmacyRequestDTO)&lt;/div&gt;&lt;div&gt;&amp;nbsp; &amp;nbsp; + updatePharmacyInfo(id: String, dto: PharmacyRequestDTO)&lt;/div&gt;&lt;div&gt;&amp;nbsp; &amp;nbsp; + getPharmacyById(id: String)&lt;/div&gt;&lt;div&gt;&amp;nbsp; &amp;nbsp; + getAllPharmacies()&lt;/div&gt;&lt;div&gt;&amp;nbsp; &amp;nbsp; + deletePharmacy(id: String)&lt;/div&gt;&lt;div&gt;&amp;nbsp; &amp;nbsp; + scanPrescriptionCode(code: String)&lt;/div&gt;&lt;div&gt;&amp;nbsp; &amp;nbsp; + validatePrescription(code: String, pharmacistId: String)&lt;/div&gt;" style="text;strokeColor=none;fillColor=none;align=left;verticalAlign=top;spacingLeft=4;spacingRight=4;overflow=hidden;rotatable=0;points=[[0,0.5],[1,0.5]];portConstraint=eastwest;whiteSpace=wrap;html=1;rounded=1;fontSize=14;" parent="9863JnEJpdngomxdaVxT-42" vertex="1">
          <mxGeometry y="26" width="411" height="134" as="geometry" />
        </mxCell>
        <mxCell id="9863JnEJpdngomxdaVxT-44" value="«interface»&lt;br&gt;&lt;div style=&quot;text-align: left;&quot;&gt;&lt;b&gt;PharmacyService&lt;/b&gt;&lt;/div&gt;" style="html=1;whiteSpace=wrap;fillColor=#dae8fc;strokeColor=#6c8ebf;rounded=1;fontSize=14;" parent="9863JnEJpdngomxdaVxT-41" vertex="1">
          <mxGeometry x="179.5" y="40" width="170" height="59" as="geometry" />
        </mxCell>
        <mxCell id="9863JnEJpdngomxdaVxT-45" value="" style="endArrow=block;dashed=1;endFill=0;endSize=12;html=1;rounded=0;exitX=0.5;exitY=0;exitDx=0;exitDy=0;entryX=0.5;entryY=1;entryDx=0;entryDy=0;fontSize=14;" parent="9863JnEJpdngomxdaVxT-41" source="9863JnEJpdngomxdaVxT-42" target="9863JnEJpdngomxdaVxT-44" edge="1">
          <mxGeometry width="160" relative="1" as="geometry">
            <mxPoint x="264.50000000000045" y="150" as="sourcePoint" />
            <mxPoint x="117.5" y="70" as="targetPoint" />
          </mxGeometry>
        </mxCell>
        <mxCell id="9863JnEJpdngomxdaVxT-46" value="Implements" style="edgeLabel;html=1;align=center;verticalAlign=middle;resizable=0;points=[];fontSize=14;" parent="9863JnEJpdngomxdaVxT-45" vertex="1" connectable="0">
          <mxGeometry x="-0.0998" y="1" relative="1" as="geometry">
            <mxPoint as="offset" />
          </mxGeometry>
        </mxCell>
        <mxCell id="9863JnEJpdngomxdaVxT-47" value="Controllers" style="shape=folder;fontStyle=1;tabWidth=110;tabHeight=30;tabPosition=left;html=1;boundedLbl=1;labelInHeader=1;container=1;collapsible=0;recursiveResize=0;whiteSpace=wrap;fontSize=14;" parent="1" vertex="1">
          <mxGeometry x="590" y="281" width="370" height="250" as="geometry" />
        </mxCell>
        <mxCell id="9863JnEJpdngomxdaVxT-48" value="&lt;div style=&quot;text-align: left;&quot;&gt;&lt;span style=&quot;font-weight: 400;&quot;&gt;PharmacyController&amp;nbsp;&lt;/span&gt;&lt;/div&gt;" style="swimlane;fontStyle=1;align=center;verticalAlign=top;childLayout=stackLayout;horizontal=1;startSize=26;horizontalStack=0;resizeParent=1;resizeParentMax=0;resizeLast=0;collapsible=1;marginBottom=0;whiteSpace=wrap;html=1;rounded=1;fillColor=#dae8fc;strokeColor=#6c8ebf;fontSize=14;" parent="9863JnEJpdngomxdaVxT-47" vertex="1">
          <mxGeometry x="29.5" y="42" width="290" height="200" as="geometry" />
        </mxCell>
        <mxCell id="9863JnEJpdngomxdaVxT-49" value="&lt;div&gt;&amp;nbsp;+ createPharmacy(request: PharmacyRequestDTO)&lt;/div&gt;&lt;div&gt;&amp;nbsp; &amp;nbsp; + updatePharmacyInfo(id: String, request: PharmacyRequestDTO)&lt;/div&gt;&lt;div&gt;&amp;nbsp; &amp;nbsp; + getPharmacy(id: String)&lt;/div&gt;&lt;div&gt;&amp;nbsp; &amp;nbsp; + getAllPharmacies()&lt;/div&gt;&lt;div&gt;&amp;nbsp; &amp;nbsp; + searchByName(name: String)&lt;/div&gt;&lt;div&gt;&amp;nbsp; &amp;nbsp; + deletePharmacy(id: String)&lt;/div&gt;&lt;div&gt;&amp;nbsp; &amp;nbsp; + scanPrescription(code: String)&lt;/div&gt;&lt;div&gt;&amp;nbsp; &amp;nbsp; + validate(code: String, pharmacistId: String)&lt;/div&gt;" style="text;strokeColor=none;fillColor=none;align=left;verticalAlign=top;spacingLeft=4;spacingRight=4;overflow=hidden;rotatable=0;points=[[0,0.5],[1,0.5]];portConstraint=eastwest;whiteSpace=wrap;html=1;rounded=1;fontSize=14;" parent="9863JnEJpdngomxdaVxT-48" vertex="1">
          <mxGeometry y="26" width="290" height="174" as="geometry" />
        </mxCell>
        <mxCell id="9863JnEJpdngomxdaVxT-50" value="Repositories" style="shape=folder;fontStyle=1;tabWidth=110;tabHeight=30;tabPosition=left;html=1;boundedLbl=1;labelInHeader=1;container=1;collapsible=0;recursiveResize=0;whiteSpace=wrap;fontSize=14;" parent="1" vertex="1">
          <mxGeometry x="610" y="1000" width="320" height="310" as="geometry" />
        </mxCell>
        <mxCell id="9863JnEJpdngomxdaVxT-51" value="&lt;div style=&quot;text-align: left;&quot;&gt;&lt;span style=&quot;font-weight: 400;&quot;&gt;PharmacyRepository&amp;nbsp;&lt;/span&gt;&lt;/div&gt;" style="swimlane;fontStyle=1;align=center;verticalAlign=top;childLayout=stackLayout;horizontal=1;startSize=26;horizontalStack=0;resizeParent=1;resizeParentMax=0;resizeLast=0;collapsible=1;marginBottom=0;whiteSpace=wrap;html=1;rounded=1;fillColor=#dae8fc;strokeColor=#6c8ebf;fontSize=14;" parent="9863JnEJpdngomxdaVxT-50" vertex="1">
          <mxGeometry x="20" y="48" width="260" height="110" as="geometry" />
        </mxCell>
        <mxCell id="9863JnEJpdngomxdaVxT-52" value="" style="line;strokeWidth=1;fillColor=none;align=left;verticalAlign=middle;spacingTop=-1;spacingLeft=3;spacingRight=3;rotatable=0;labelPosition=right;points=[];portConstraint=eastwest;strokeColor=inherit;rounded=1;fontSize=14;" parent="9863JnEJpdngomxdaVxT-51" vertex="1">
          <mxGeometry y="26" width="260" height="8" as="geometry" />
        </mxCell>
        <mxCell id="9863JnEJpdngomxdaVxT-53" value="&lt;div&gt;&lt;div&gt;&amp;nbsp;+ save(pharmacy: Pharmacy)&lt;/div&gt;&lt;div&gt;&amp;nbsp; &amp;nbsp; + findById(id: UUID)&lt;/div&gt;&lt;div&gt;&amp;nbsp; &amp;nbsp; + findAll()&lt;/div&gt;&lt;div&gt;&amp;nbsp; &amp;nbsp; + deleteById(id: UUID)&lt;/div&gt;&lt;/div&gt;" style="text;strokeColor=none;fillColor=none;align=left;verticalAlign=top;spacingLeft=4;spacingRight=4;overflow=hidden;rotatable=0;points=[[0,0.5],[1,0.5]];portConstraint=eastwest;whiteSpace=wrap;html=1;rounded=1;fontSize=14;" parent="9863JnEJpdngomxdaVxT-51" vertex="1">
          <mxGeometry y="34" width="260" height="76" as="geometry" />
        </mxCell>
        <mxCell id="9863JnEJpdngomxdaVxT-54" value="&lt;div style=&quot;text-align: left;&quot;&gt;&lt;span style=&quot;font-weight: 400;&quot;&gt;JpaRepository&lt;/span&gt;&lt;/div&gt;" style="swimlane;fontStyle=1;align=center;verticalAlign=top;childLayout=stackLayout;horizontal=1;startSize=26;horizontalStack=0;resizeParent=1;resizeParentMax=0;resizeLast=0;collapsible=1;marginBottom=0;whiteSpace=wrap;html=1;rounded=1;fillColor=#dae8fc;strokeColor=#6c8ebf;fontSize=14;" parent="9863JnEJpdngomxdaVxT-50" vertex="1">
          <mxGeometry x="57" y="230" width="190" height="34" as="geometry" />
        </mxCell>
        <mxCell id="9863JnEJpdngomxdaVxT-55" value="" style="line;strokeWidth=1;fillColor=none;align=left;verticalAlign=middle;spacingTop=-1;spacingLeft=3;spacingRight=3;rotatable=0;labelPosition=right;points=[];portConstraint=eastwest;strokeColor=inherit;rounded=1;fontSize=14;" parent="9863JnEJpdngomxdaVxT-54" vertex="1">
          <mxGeometry y="26" width="190" height="8" as="geometry" />
        </mxCell>
        <mxCell id="9863JnEJpdngomxdaVxT-56" value="" style="endArrow=block;dashed=1;endFill=0;endSize=12;html=1;rounded=0;exitX=0.514;exitY=0.996;exitDx=0;exitDy=0;entryX=0.5;entryY=0;entryDx=0;entryDy=0;fontSize=14;exitPerimeter=0;" parent="9863JnEJpdngomxdaVxT-50" source="9863JnEJpdngomxdaVxT-53" target="9863JnEJpdngomxdaVxT-54" edge="1">
          <mxGeometry width="160" relative="1" as="geometry">
            <mxPoint x="480" y="202" as="sourcePoint" />
            <mxPoint x="480" y="130" as="targetPoint" />
            <Array as="points" />
          </mxGeometry>
        </mxCell>
        <mxCell id="9863JnEJpdngomxdaVxT-57" value="Implements" style="edgeLabel;html=1;align=center;verticalAlign=middle;resizable=0;points=[];fontSize=14;" parent="9863JnEJpdngomxdaVxT-56" vertex="1" connectable="0">
          <mxGeometry x="-0.0998" y="1" relative="1" as="geometry">
            <mxPoint as="offset" />
          </mxGeometry>
        </mxCell>
        <mxCell id="9863JnEJpdngomxdaVxT-65" value="" style="shape=card;whiteSpace=wrap;html=1;rotation=90;flipV=1;flipH=1;direction=west;fontSize=14;" parent="1" vertex="1">
          <mxGeometry x="730" y="48" width="30" height="391" as="geometry" />
        </mxCell>
        <mxCell id="9863JnEJpdngomxdaVxT-66" value="&lt;h1 style=&quot;text-align: left; margin-top: 0px;&quot;&gt;&lt;span style=&quot;background-color: transparent; color: light-dark(rgb(0, 0, 0), rgb(255, 255, 255));&quot;&gt;&lt;font style=&quot;font-size: 25px;&quot;&gt;Pharmcay-service -DC&lt;/font&gt;&lt;/span&gt;&lt;/h1&gt;" style="text;html=1;align=center;verticalAlign=middle;whiteSpace=wrap;rounded=0;fontSize=14;" parent="1" vertex="1">
          <mxGeometry x="570" y="238" width="340" height="27" as="geometry" />
        </mxCell>
        <mxCell id="9863JnEJpdngomxdaVxT-68" value="Use" style="endArrow=open;endSize=12;dashed=1;html=1;rounded=0;exitX=0.489;exitY=1.008;exitDx=0;exitDy=0;exitPerimeter=0;entryX=0.5;entryY=0;entryDx=0;entryDy=0;fontSize=14;" parent="1" source="9863JnEJpdngomxdaVxT-49" target="9863JnEJpdngomxdaVxT-44" edge="1">
          <mxGeometry width="160" relative="1" as="geometry">
            <mxPoint x="880" y="600" as="sourcePoint" />
            <mxPoint x="1040" y="600" as="targetPoint" />
          </mxGeometry>
        </mxCell>
        <mxCell id="9863JnEJpdngomxdaVxT-69" value="Use" style="endArrow=open;endSize=12;dashed=1;html=1;rounded=0;exitX=0.478;exitY=1.012;exitDx=0;exitDy=0;exitPerimeter=0;entryX=0.421;entryY=0.05;entryDx=0;entryDy=0;entryPerimeter=0;fontSize=14;" parent="1" source="9863JnEJpdngomxdaVxT-43" target="9863JnEJpdngomxdaVxT-51" edge="1">
          <mxGeometry width="160" relative="1" as="geometry">
            <mxPoint x="930" y="980" as="sourcePoint" />
            <mxPoint x="1090" y="980" as="targetPoint" />
          </mxGeometry>
        </mxCell>
        <mxCell id="9863JnEJpdngomxdaVxT-76" value="Use" style="endArrow=open;endSize=12;dashed=1;html=1;rounded=0;exitX=1;exitY=0.5;exitDx=0;exitDy=0;entryX=-0.003;entryY=0.245;entryDx=0;entryDy=0;entryPerimeter=0;fontSize=14;" parent="1" source="9863JnEJpdngomxdaVxT-43" target="9863JnEJpdngomxdaVxT-28" edge="1">
          <mxGeometry width="160" relative="1" as="geometry">
            <mxPoint x="1096" y="1000" as="sourcePoint" />
            <mxPoint x="1030" y="1113" as="targetPoint" />
          </mxGeometry>
        </mxCell>
        <mxCell id="9863JnEJpdngomxdaVxT-79" value="feignClient" style="shape=folder;fontStyle=1;tabWidth=110;tabHeight=30;tabPosition=left;html=1;boundedLbl=1;labelInHeader=1;container=1;collapsible=0;recursiveResize=0;whiteSpace=wrap;fontSize=14;" parent="1" vertex="1">
          <mxGeometry x="981" y="290" width="339.5" height="220" as="geometry" />
        </mxCell>
        <mxCell id="9863JnEJpdngomxdaVxT-80" value="&lt;div style=&quot;text-align: left;&quot;&gt;&lt;span style=&quot;font-weight: 400;&quot;&gt;&amp;nbsp;UserClient&amp;nbsp;&lt;/span&gt;&lt;/div&gt;" style="swimlane;fontStyle=1;align=center;verticalAlign=top;childLayout=stackLayout;horizontal=1;startSize=26;horizontalStack=0;resizeParent=1;resizeParentMax=0;resizeLast=0;collapsible=1;marginBottom=0;whiteSpace=wrap;html=1;rounded=1;fillColor=#dae8fc;strokeColor=#6c8ebf;fontSize=14;" parent="9863JnEJpdngomxdaVxT-79" vertex="1">
          <mxGeometry x="10" y="42" width="310" height="60" as="geometry" />
        </mxCell>
        <mxCell id="9863JnEJpdngomxdaVxT-81" value="&lt;div&gt;&amp;nbsp; &amp;nbsp; + getUserById(id: String): UserResponseDTO&lt;/div&gt;&lt;div&gt;&lt;br&gt;&lt;/div&gt;" style="text;strokeColor=none;fillColor=none;align=left;verticalAlign=top;spacingLeft=4;spacingRight=4;overflow=hidden;rotatable=0;points=[[0,0.5],[1,0.5]];portConstraint=eastwest;whiteSpace=wrap;html=1;rounded=1;fontSize=14;" parent="9863JnEJpdngomxdaVxT-80" vertex="1">
          <mxGeometry y="26" width="310" height="34" as="geometry" />
        </mxCell>
        <mxCell id="9863JnEJpdngomxdaVxT-91" value="&lt;div style=&quot;text-align: left;&quot;&gt;&lt;span style=&quot;font-weight: 400;&quot;&gt;&amp;nbsp;PrescriptionClient&lt;/span&gt;&lt;/div&gt;" style="swimlane;fontStyle=1;align=center;verticalAlign=top;childLayout=stackLayout;horizontal=1;startSize=26;horizontalStack=0;resizeParent=1;resizeParentMax=0;resizeLast=0;collapsible=1;marginBottom=0;whiteSpace=wrap;html=1;rounded=1;fillColor=#dae8fc;strokeColor=#6c8ebf;fontSize=14;" parent="9863JnEJpdngomxdaVxT-79" vertex="1">
          <mxGeometry x="10" y="111" width="310" height="90" as="geometry" />
        </mxCell>
        <mxCell id="9863JnEJpdngomxdaVxT-92" value="&lt;div&gt;&lt;div&gt;&amp;nbsp; + getPrescriptionByCode(code: String)&lt;/div&gt;&lt;div&gt;&amp;nbsp; &amp;nbsp; + validatePrescription(code: String, pharmacistId: String)&lt;/div&gt;&lt;/div&gt;" style="text;strokeColor=none;fillColor=none;align=left;verticalAlign=top;spacingLeft=4;spacingRight=4;overflow=hidden;rotatable=0;points=[[0,0.5],[1,0.5]];portConstraint=eastwest;whiteSpace=wrap;html=1;rounded=1;fontSize=14;" parent="9863JnEJpdngomxdaVxT-91" vertex="1">
          <mxGeometry y="26" width="310" height="64" as="geometry" />
        </mxCell>
        <mxCell id="9863JnEJpdngomxdaVxT-83" value="Use" style="endArrow=open;endSize=12;dashed=1;html=1;rounded=0;exitX=0.984;exitY=0.004;exitDx=0;exitDy=0;exitPerimeter=0;entryX=0.5;entryY=1;entryDx=0;entryDy=0;entryPerimeter=0;fontSize=14;" parent="1" source="9863JnEJpdngomxdaVxT-42" target="9863JnEJpdngomxdaVxT-79" edge="1">
          <mxGeometry width="160" relative="1" as="geometry">
            <mxPoint x="1310" y="848" as="sourcePoint" />
            <mxPoint x="1590" y="750" as="targetPoint" />
          </mxGeometry>
        </mxCell>
        <mxCell id="9863JnEJpdngomxdaVxT-84" value="return" style="html=1;verticalAlign=bottom;endArrow=open;dashed=1;endSize=8;curved=0;rounded=0;entryX=0.546;entryY=0.975;entryDx=0;entryDy=0;entryPerimeter=0;fontSize=14;exitX=0.989;exitY=0.93;exitDx=0;exitDy=0;exitPerimeter=0;" parent="1" source="9863JnEJpdngomxdaVxT-79" target="9863JnEJpdngomxdaVxT-88" edge="1">
          <mxGeometry relative="1" as="geometry">
            <mxPoint x="1330" y="530" as="sourcePoint" />
            <mxPoint x="1250" y="530" as="targetPoint" />
            <Array as="points">
              <mxPoint x="1504" y="495" />
            </Array>
          </mxGeometry>
        </mxCell>
        <mxCell id="9863JnEJpdngomxdaVxT-87" value="Use" style="endArrow=open;endSize=12;dashed=1;html=1;rounded=0;exitX=1;exitY=0.5;exitDx=0;exitDy=0;entryX=0;entryY=0.5;entryDx=0;entryDy=0;fontSize=14;" parent="1" source="9863JnEJpdngomxdaVxT-53" target="9863JnEJpdngomxdaVxT-4" edge="1">
          <mxGeometry width="160" relative="1" as="geometry">
            <mxPoint x="1137" y="1690" as="sourcePoint" />
            <mxPoint x="1000" y="1835" as="targetPoint" />
          </mxGeometry>
        </mxCell>
        <mxCell id="9863JnEJpdngomxdaVxT-88" value="common.dto" style="shape=folder;fontStyle=1;tabWidth=110;tabHeight=30;tabPosition=left;html=1;boundedLbl=1;labelInHeader=1;container=1;collapsible=0;recursiveResize=0;whiteSpace=wrap;fontSize=14;" parent="1" vertex="1">
          <mxGeometry x="1339.75" y="290" width="300" height="157" as="geometry" />
        </mxCell>
        <mxCell id="9863JnEJpdngomxdaVxT-89" value="&lt;div style=&quot;text-align: left;&quot;&gt;&lt;span style=&quot;font-weight: 400;&quot;&gt;UserResponseDTO&amp;nbsp;&lt;/span&gt;&lt;/div&gt;" style="swimlane;fontStyle=1;align=center;verticalAlign=top;childLayout=stackLayout;horizontal=1;startSize=26;horizontalStack=0;resizeParent=1;resizeParentMax=0;resizeLast=0;collapsible=1;marginBottom=0;whiteSpace=wrap;html=1;fillColor=#dae8fc;strokeColor=#6c8ebf;rounded=1;fontSize=14;" parent="9863JnEJpdngomxdaVxT-88" vertex="1">
          <mxGeometry x="19.5" y="46" width="250" height="34" as="geometry">
            <mxRectangle x="200" y="60" width="70" height="30" as="alternateBounds" />
          </mxGeometry>
        </mxCell>
        <mxCell id="9863JnEJpdngomxdaVxT-90" value="" style="line;strokeWidth=1;fillColor=none;align=left;verticalAlign=middle;spacingTop=-1;spacingLeft=3;spacingRight=3;rotatable=0;labelPosition=right;points=[];portConstraint=eastwest;strokeColor=inherit;rounded=1;fontSize=14;" parent="9863JnEJpdngomxdaVxT-89" vertex="1">
          <mxGeometry y="26" width="250" height="8" as="geometry" />
        </mxCell>
        <mxCell id="9863JnEJpdngomxdaVxT-93" value="&lt;div style=&quot;text-align: left;&quot;&gt;&lt;span style=&quot;font-weight: 400;&quot;&gt;PrescriptionResponseDTO&lt;/span&gt;&lt;/div&gt;" style="swimlane;fontStyle=1;align=center;verticalAlign=top;childLayout=stackLayout;horizontal=1;startSize=26;horizontalStack=0;resizeParent=1;resizeParentMax=0;resizeLast=0;collapsible=1;marginBottom=0;whiteSpace=wrap;html=1;fillColor=#dae8fc;strokeColor=#6c8ebf;rounded=1;fontSize=14;" parent="9863JnEJpdngomxdaVxT-88" vertex="1">
          <mxGeometry x="30" y="95" width="250" height="34" as="geometry">
            <mxRectangle x="200" y="60" width="70" height="30" as="alternateBounds" />
          </mxGeometry>
        </mxCell>
        <mxCell id="9863JnEJpdngomxdaVxT-94" value="" style="line;strokeWidth=1;fillColor=none;align=left;verticalAlign=middle;spacingTop=-1;spacingLeft=3;spacingRight=3;rotatable=0;labelPosition=right;points=[];portConstraint=eastwest;strokeColor=inherit;rounded=1;fontSize=14;" parent="9863JnEJpdngomxdaVxT-93" vertex="1">
          <mxGeometry y="26" width="250" height="8" as="geometry" />
        </mxCell>
        <mxCell id="9863JnEJpdngomxdaVxT-95" value="mapper" style="shape=folder;fontStyle=1;tabWidth=110;tabHeight=30;tabPosition=left;html=1;boundedLbl=1;labelInHeader=1;container=1;collapsible=0;recursiveResize=0;whiteSpace=wrap;fontSize=14;" parent="1" vertex="1">
          <mxGeometry x="1322.25" y="941" width="335" height="190" as="geometry" />
        </mxCell>
        <mxCell id="9863JnEJpdngomxdaVxT-98" value="&lt;div style=&quot;text-align: left;&quot;&gt;PharmacyMapper&lt;/div&gt;" style="swimlane;fontStyle=1;align=center;verticalAlign=top;childLayout=stackLayout;horizontal=1;startSize=26;horizontalStack=0;resizeParent=1;resizeParentMax=0;resizeLast=0;collapsible=1;marginBottom=0;whiteSpace=wrap;html=1;rounded=1;fillColor=#dae8fc;strokeColor=#6c8ebf;fontSize=14;" parent="9863JnEJpdngomxdaVxT-95" vertex="1">
          <mxGeometry x="12.5" y="63" width="310" height="110" as="geometry" />
        </mxCell>
        <mxCell id="9863JnEJpdngomxdaVxT-99" value="" style="line;strokeWidth=1;fillColor=none;align=left;verticalAlign=middle;spacingTop=-1;spacingLeft=3;spacingRight=3;rotatable=0;labelPosition=right;points=[];portConstraint=eastwest;strokeColor=inherit;rounded=1;fontSize=14;" parent="9863JnEJpdngomxdaVxT-98" vertex="1">
          <mxGeometry y="26" width="310" height="8" as="geometry" />
        </mxCell>
        <mxCell id="9863JnEJpdngomxdaVxT-100" value="&lt;div&gt;+ toEntity(dto: PharmacyRequestDTO): Pharmacy&lt;/div&gt;&lt;div&gt;&amp;nbsp; &amp;nbsp; + toResponseDTO(entity: Pharmacy): PharmacyResponseDTO&lt;/div&gt;" style="text;strokeColor=none;fillColor=none;align=left;verticalAlign=top;spacingLeft=4;spacingRight=4;overflow=hidden;rotatable=0;points=[[0,0.5],[1,0.5]];portConstraint=eastwest;whiteSpace=wrap;html=1;rounded=1;fontSize=14;" parent="9863JnEJpdngomxdaVxT-98" vertex="1">
          <mxGeometry y="34" width="310" height="76" as="geometry" />
        </mxCell>
        <mxCell id="9863JnEJpdngomxdaVxT-101" value="Use" style="endArrow=open;endSize=12;dashed=1;html=1;rounded=0;exitX=0;exitY=0;exitDx=222.5;exitDy=30;entryX=0.69;entryY=1.001;entryDx=0;entryDy=0;fontSize=14;exitPerimeter=0;entryPerimeter=0;" parent="1" source="9863JnEJpdngomxdaVxT-95" target="9863JnEJpdngomxdaVxT-26" edge="1">
          <mxGeometry width="160" relative="1" as="geometry">
            <mxPoint x="1290" y="900" as="sourcePoint" />
            <mxPoint x="1528" y="740" as="targetPoint" />
            <Array as="points" />
          </mxGeometry>
        </mxCell>
        <mxCell id="9863JnEJpdngomxdaVxT-104" value="Use" style="endArrow=open;endSize=12;dashed=1;html=1;rounded=0;exitX=0.624;exitY=1.001;exitDx=0;exitDy=0;entryX=0;entryY=0;entryDx=310.5;entryDy=165;entryPerimeter=0;fontSize=14;exitPerimeter=0;" parent="1" source="9863JnEJpdngomxdaVxT-95" target="9863JnEJpdngomxdaVxT-2" edge="1">
          <mxGeometry width="160" relative="1" as="geometry">
            <mxPoint x="1210" y="950" as="sourcePoint" />
            <mxPoint x="1448" y="790" as="targetPoint" />
            <Array as="points">
              <mxPoint x="1530" y="1280" />
            </Array>
          </mxGeometry>
        </mxCell>
        <mxCell id="9863JnEJpdngomxdaVxT-105" value="Use" style="endArrow=open;endSize=12;dashed=1;html=1;rounded=0;exitX=1;exitY=0.5;exitDx=0;exitDy=0;entryX=0;entryY=0;entryDx=0;entryDy=110;entryPerimeter=0;fontSize=14;" parent="1" source="9863JnEJpdngomxdaVxT-43" target="9863JnEJpdngomxdaVxT-95" edge="1">
          <mxGeometry width="160" relative="1" as="geometry">
            <mxPoint x="1120" y="1020" as="sourcePoint" />
            <mxPoint x="1358" y="860" as="targetPoint" />
          </mxGeometry>
        </mxCell>
      </root>
    </mxGraphModel>
  </diagram>
</mxfile>
